<svg xmlns="http://www.w3.org/2000/svg" version="1.1" xmlns:xlink="http://www.w3.org/1999/xlink" xmlns:svgjs="http://svgjs.com/svgjs" width="1440" height="560" preserveAspectRatio="none" viewBox="0 0 1440 560"><g mask="url(&quot;#SvgjsMask1006&quot;)" fill="none"><rect width="1440" height="560" x="0" y="0" fill="rgba(255, 255, 255, 1)"></rect><path d="M680.1 491.98L735.03 491.98L735.03 497.61L680.1 497.61z" fill="#037b0b"></path><path d="M1141.29 408.61L1174.92 408.61L1174.92 432.24L1141.29 432.24z" stroke="#d3b714"></path><path d="M664.79 237.21a21.62 21.62 0 1 0 3.93-43.06z" stroke="#e73635"></path><path d="M931.67 500.08a25.21 25.21 0 1 0 44.45-23.8z" fill="#037b0b"></path><path d="M1407.9 542.61L1454.02 542.61L1454.02 573.45L1407.9 573.45z" stroke="#e73635"></path><path d="M568.94 62.71a52.23 52.23 0 1 0 7.68 104.17z" stroke="#d3b714"></path><path d="M1189.75 174.72a24.82 24.82 0 1 0-45.13-20.67z" stroke="#d3b714"></path><path d="M919.58 541.76 a36.85 36.85 0 1 0 73.7 0 a36.85 36.85 0 1 0 -73.7 0z" fill="#d3b714"></path><path d="M274.76 359.41a54.85 54.85 0 1 0 6.4 109.51z" fill="#d3b714"></path><path d="M999.74 234.65L1050.92 234.65L1050.92 285.83L999.74 285.83z" stroke="#037b0b"></path><path d="M1100.52 23.14 a54.12 54.12 0 1 0 108.24 0 a54.12 54.12 0 1 0 -108.24 0z" fill="#d3b714"></path><path d="M1140.33 328.22 a18.4 18.4 0 1 0 36.8 0 a18.4 18.4 0 1 0 -36.8 0z" stroke="#e73635"></path><path d="M532.87 71.76L539.18 71.76L539.18 78.07L532.87 78.07z" stroke="#e73635"></path><path d="M1105.42 116.58 a20.43 20.43 0 1 0 40.86 0 a20.43 20.43 0 1 0 -40.86 0z" stroke="#d3b714"></path><path d="M1234.25 272.1L1270.65 272.1L1270.65 308.5L1234.25 308.5z" fill="#037b0b"></path><path d="M728.32 22.62L748.79 22.62L748.79 61.38L728.32 61.38z" stroke="#e73635"></path><path d="M611.93 253.71 a40.57 40.57 0 1 0 81.14 0 a40.57 40.57 0 1 0 -81.14 0z" stroke="#e73635"></path><path d="M244 259.45a16.26 16.26 0 1 0-28.23-16.13z" stroke="#037b0b"></path><path d="M50.06 166.16L81.43 166.16L81.43 197.53L50.06 197.53z" stroke="#d3b714"></path><path d="M659.78 198.69a42.87 42.87 0 1 0 63.1 58.04z" stroke="#d3b714"></path><path d="M1258.82 318.31L1298.84 318.31L1298.84 359.96L1258.82 359.96z" fill="#d3b714"></path><path d="M936.17 327.39 a7.65 7.65 0 1 0 15.3 0 a7.65 7.65 0 1 0 -15.3 0z" stroke="#037b0b"></path><path d="M1425.46 50.88L1443.07 50.88L1443.07 66.31L1425.46 66.31z" fill="#e73635"></path><path d="M478.7 281.88a34.88 34.88 0 1 0 68.9-10.9z" stroke="#037b0b"></path><path d="M355.85 524.6L372.87 524.6L372.87 541.62L355.85 541.62z" stroke="#d3b714"></path><path d="M636.87 370.84L639.32 370.84L639.32 403.98L636.87 403.98z" fill="#e73635"></path><path d="M65.19 29.61 a40.18 40.18 0 1 0 80.36 0 a40.18 40.18 0 1 0 -80.36 0z" stroke="#e73635"></path><path d="M369.75 107.31 a0.75 0.75 0 1 0 1.5 0 a0.75 0.75 0 1 0 -1.5 0z" stroke="#d3b714"></path><path d="M481.76 370.62L529.06 370.62L529.06 391.64L481.76 391.64z" stroke="#e73635"></path><path d="M1403.79 209.67L1436.04 209.67L1436.04 244.33L1403.79 244.33z" stroke="#037b0b"></path><path d="M1091.58 466.01L1099.63 466.01L1099.63 466.19L1091.58 466.19z" fill="#037b0b"></path><path d="M1223.49 261.14 a9.26 9.26 0 1 0 18.52 0 a9.26 9.26 0 1 0 -18.52 0z" stroke="#d3b714"></path><path d="M699.87 177.08 a50.84 50.84 0 1 0 101.68 0 a50.84 50.84 0 1 0 -101.68 0z" fill="#037b0b"></path></g><defs><mask id="SvgjsMask1006"><rect width="1440" height="560" fill="#ffffff"></rect></mask></defs></svg>